<?xml version="1.0" standalone="no"?>
<!DOCTYPE svg PUBLIC "-//W3C//DTD SVG 20010904//EN"
 "http://www.w3.org/TR/2001/REC-SVG-20010904/DTD/svg10.dtd">
<svg version="1.0" xmlns="http://www.w3.org/2000/svg"
 width="260.000000pt" height="260.000000pt" viewBox="0 0 260.000000 260.000000"
 preserveAspectRatio="xMidYMid meet">
<metadata>
Created by potrace 1.11, written by Peter Selinger 2001-2013
</metadata>
<g transform="translate(0.000000,260.000000) scale(0.100000,-0.100000)"
fill="#000000" stroke="none">
<path d="M93 2282 l-23 -3 0 -299 0 -298 958 0 959 0 299 299 c249 249 295
299 274 300 -95 2 -2450 3 -2467 1z"/>
<path d="M979 1593 c-1 -5 -2 -293 -3 -640 -1 -416 2 -633 9 -634 16 0 538 -1
565 0 l26 1 -1 638 0 637 -297 3 c-164 1 -298 -1 -299 -5z"/>
</g>
</svg>
